<?xml version="1.0" encoding="UTF-8"?>
<svg xmlns="http://www.w3.org/2000/svg" width="1200" height="720" viewBox="0 0 1200 720" role="img" aria-labelledby="title description">
  <title id="title">卡尔曼滤波</title>
  <desc id="description">预测 - 测量 - 更新</desc>
  <defs>
    <marker id="arrow" markerWidth="10" markerHeight="10" refX="8" refY="5" orient="auto"><path d="M0,0 L10,5 L0,10 Z" fill="#52ad32"/></marker>
    <filter id="shadow" x="-10%" y="-10%" width="120%" height="130%"><feDropShadow dx="0" dy="8" stdDeviation="10" flood-color="#18321a" flood-opacity="0.08"/></filter>
  </defs>
  <rect width="1200" height="720" fill="#f5f8f3"/>
  <rect x="54" y="46" width="1092" height="628" rx="28" fill="#ffffff" stroke="#bfd4b7" stroke-width="2" filter="url(#shadow)"/>
  <text x="92" y="112" text-anchor="start" font-size="34" font-weight="700" fill="#102018"><tspan x="92" dy="0">卡尔曼滤波</tspan></text>
  <text x="92" y="150" text-anchor="start" font-size="18" font-weight="500" fill="#58665e"><tspan x="92" dy="0">预测 - 测量 - 更新</tspan></text>
  <path d="M92 178 H1108" stroke="#bfd4b7" stroke-width="2"/>
  
  <g><rect x="92" y="238" width="250" height="118" rx="18" fill="#ffffff" stroke="#bfd4b7" stroke-width="2"/><text x="217" y="287" text-anchor="middle" font-size="21" font-weight="600" fill="#102018"><tspan x="217" dy="0">运动模型</tspan><tspan x="217" dy="28">先验位姿 + 协方差</tspan></text></g>
  <g><rect x="92" y="430" width="250" height="118" rx="18" fill="#ffffff" stroke="#bfd4b7" stroke-width="2"/><text x="217" y="479" text-anchor="middle" font-size="21" font-weight="600" fill="#102018"><tspan x="217" dy="0">视觉测量</tspan><tspan x="217" dy="28">观测 + 噪声</tspan></text></g>
  <path d="M 342 297 L 492 357" fill="none" stroke="#52ad32" stroke-width="4" stroke-linecap="round" marker-end="url(#arrow)"/><path d="M 342 489 L 492 413" fill="none" stroke="#52ad32" stroke-width="4" stroke-linecap="round" marker-end="url(#arrow)"/>
  <g><rect x="492" y="312" width="250" height="142" rx="18" fill="#e7f3e2" stroke="#52ad32" stroke-width="2"/><text x="617" y="373" text-anchor="middle" font-size="21" font-weight="600" fill="#102018"><tspan x="617" dy="0">卡尔曼增益</tspan><tspan x="617" dy="28">按不确定性分配权重</tspan></text></g>
  <path d="M 742 383 L 858 383" fill="none" stroke="#52ad32" stroke-width="4" stroke-linecap="round" marker-end="url(#arrow)"/>
  <g><rect x="858" y="312" width="250" height="142" rx="18" fill="#e7f3e2" stroke="#52ad32" stroke-width="2"/><text x="983" y="373" text-anchor="middle" font-size="22" font-weight="600" fill="#102018"><tspan x="983" dy="0">融合位姿</tspan><tspan x="983" dy="28">更小的不确定性</tspan></text></g>
  <path d="M983 454 C983 588 217 616 217 548" fill="none" stroke="#2c7624" stroke-width="3" stroke-dasharray="10 9" marker-end="url(#arrow)"/>
  <text x="600" y="621" text-anchor="middle" font-size="18" font-weight="600" fill="#58665e"><tspan x="600" dy="0">更新结果进入下一周期预测</tspan></text>

</svg>