<?xml version="1.0" encoding="UTF-8"?>
<svg xmlns="http://www.w3.org/2000/svg" width="1200" height="720" viewBox="0 0 1200 720" role="img" aria-labelledby="title description">
  <title id="title">8 × 8 LED 灯板</title>
  <desc id="description">状态优先级统一更新，机械动作与视觉反馈同步</desc>
  <defs>
    <marker id="arrow" markerWidth="10" markerHeight="10" refX="8" refY="5" orient="auto"><path d="M0,0 L10,5 L0,10 Z" fill="#52ad32"/></marker>
    <filter id="shadow" x="-10%" y="-10%" width="120%" height="130%"><feDropShadow dx="0" dy="8" stdDeviation="10" flood-color="#18321a" flood-opacity="0.08"/></filter>
  </defs>
  <rect width="1200" height="720" fill="#f5f8f3"/>
  <rect x="54" y="46" width="1092" height="628" rx="28" fill="#ffffff" stroke="#bfd4b7" stroke-width="2" filter="url(#shadow)"/>
  <text x="92" y="112" text-anchor="start" font-size="34" font-weight="700" fill="#102018"><tspan x="92" dy="0">8 × 8 LED 灯板</tspan></text>
  <text x="92" y="150" text-anchor="start" font-size="18" font-weight="500" fill="#58665e"><tspan x="92" dy="0">状态优先级统一更新，机械动作与视觉反馈同步</tspan></text>
  <path d="M92 178 H1108" stroke="#bfd4b7" stroke-width="2"/>
  
  <g><rect x="134" y="222" width="240" height="286" rx="20" fill="#f5f8f3" stroke="#bfd4b7" stroke-width="2"/><circle cx="184" cy="278" r="6" fill="#52ad32"/><circle cx="204" cy="278" r="6" fill="#efad00"/><circle cx="224" cy="278" r="6" fill="#52ad32"/><circle cx="244" cy="278" r="6" fill="#efad00"/><circle cx="264" cy="278" r="6" fill="#52ad32"/><circle cx="284" cy="278" r="6" fill="#efad00"/><circle cx="304" cy="278" r="6" fill="#52ad32"/><circle cx="324" cy="278" r="6" fill="#efad00"/><circle cx="184" cy="298" r="6" fill="#efad00"/><circle cx="204" cy="298" r="6" fill="#52ad32"/><circle cx="224" cy="298" r="6" fill="#efad00"/><circle cx="244" cy="298" r="6" fill="#52ad32"/><circle cx="264" cy="298" r="6" fill="#efad00"/><circle cx="284" cy="298" r="6" fill="#52ad32"/><circle cx="304" cy="298" r="6" fill="#efad00"/><circle cx="324" cy="298" r="6" fill="#52ad32"/><circle cx="184" cy="318" r="6" fill="#52ad32"/><circle cx="204" cy="318" r="6" fill="#efad00"/><circle cx="224" cy="318" r="6" fill="#52ad32"/><circle cx="244" cy="318" r="6" fill="#efad00"/><circle cx="264" cy="318" r="6" fill="#52ad32"/><circle cx="284" cy="318" r="6" fill="#efad00"/><circle cx="304" cy="318" r="6" fill="#52ad32"/><circle cx="324" cy="318" r="6" fill="#efad00"/><circle cx="184" cy="338" r="6" fill="#efad00"/><circle cx="204" cy="338" r="6" fill="#52ad32"/><circle cx="224" cy="338" r="6" fill="#efad00"/><circle cx="244" cy="338" r="6" fill="#52ad32"/><circle cx="264" cy="338" r="6" fill="#efad00"/><circle cx="284" cy="338" r="6" fill="#52ad32"/><circle cx="304" cy="338" r="6" fill="#efad00"/><circle cx="324" cy="338" r="6" fill="#52ad32"/><circle cx="184" cy="358" r="6" fill="#52ad32"/><circle cx="204" cy="358" r="6" fill="#efad00"/><circle cx="224" cy="358" r="6" fill="#52ad32"/><circle cx="244" cy="358" r="6" fill="#efad00"/><circle cx="264" cy="358" r="6" fill="#52ad32"/><circle cx="284" cy="358" r="6" fill="#efad00"/><circle cx="304" cy="358" r="6" fill="#52ad32"/><circle cx="324" cy="358" r="6" fill="#efad00"/><circle cx="184" cy="378" r="6" fill="#efad00"/><circle cx="204" cy="378" r="6" fill="#52ad32"/><circle cx="224" cy="378" r="6" fill="#efad00"/><circle cx="244" cy="378" r="6" fill="#52ad32"/><circle cx="264" cy="378" r="6" fill="#efad00"/><circle cx="284" cy="378" r="6" fill="#52ad32"/><circle cx="304" cy="378" r="6" fill="#efad00"/><circle cx="324" cy="378" r="6" fill="#52ad32"/><circle cx="184" cy="398" r="6" fill="#52ad32"/><circle cx="204" cy="398" r="6" fill="#efad00"/><circle cx="224" cy="398" r="6" fill="#52ad32"/><circle cx="244" cy="398" r="6" fill="#efad00"/><circle cx="264" cy="398" r="6" fill="#52ad32"/><circle cx="284" cy="398" r="6" fill="#efad00"/><circle cx="304" cy="398" r="6" fill="#52ad32"/><circle cx="324" cy="398" r="6" fill="#efad00"/><circle cx="184" cy="418" r="6" fill="#efad00"/><circle cx="204" cy="418" r="6" fill="#52ad32"/><circle cx="224" cy="418" r="6" fill="#efad00"/><circle cx="244" cy="418" r="6" fill="#52ad32"/><circle cx="264" cy="418" r="6" fill="#efad00"/><circle cx="284" cy="418" r="6" fill="#52ad32"/><circle cx="304" cy="418" r="6" fill="#efad00"/><circle cx="324" cy="418" r="6" fill="#52ad32"/><text x="254" y="462" text-anchor="middle" font-size="21" font-weight="700" fill="#102018"><tspan x="254" dy="0">常态</tspan></text><text x="254" y="492" text-anchor="middle" font-size="16" font-weight="600" fill="#58665e"><tspan x="254" dy="0">Powerhouse 绿色</tspan></text></g><g><rect x="480" y="222" width="240" height="286" rx="20" fill="#f5f8f3" stroke="#bfd4b7" stroke-width="2"/><circle cx="530" cy="278" r="6" fill="#efad00"/><circle cx="550" cy="278" r="6" fill="#ec6b42"/><circle cx="570" cy="278" r="6" fill="#68d8ed"/><circle cx="590" cy="278" r="6" fill="#efad00"/><circle cx="610" cy="278" r="6" fill="#ec6b42"/><circle cx="630" cy="278" r="6" fill="#68d8ed"/><circle cx="650" cy="278" r="6" fill="#efad00"/><circle cx="670" cy="278" r="6" fill="#ec6b42"/><circle cx="530" cy="298" r="6" fill="#ec6b42"/><circle cx="550" cy="298" r="6" fill="#68d8ed"/><circle cx="570" cy="298" r="6" fill="#efad00"/><circle cx="590" cy="298" r="6" fill="#ec6b42"/><circle cx="610" cy="298" r="6" fill="#68d8ed"/><circle cx="630" cy="298" r="6" fill="#efad00"/><circle cx="650" cy="298" r="6" fill="#ec6b42"/><circle cx="670" cy="298" r="6" fill="#68d8ed"/><circle cx="530" cy="318" r="6" fill="#68d8ed"/><circle cx="550" cy="318" r="6" fill="#efad00"/><circle cx="570" cy="318" r="6" fill="#ec6b42"/><circle cx="590" cy="318" r="6" fill="#68d8ed"/><circle cx="610" cy="318" r="6" fill="#efad00"/><circle cx="630" cy="318" r="6" fill="#ec6b42"/><circle cx="650" cy="318" r="6" fill="#68d8ed"/><circle cx="670" cy="318" r="6" fill="#efad00"/><circle cx="530" cy="338" r="6" fill="#efad00"/><circle cx="550" cy="338" r="6" fill="#ec6b42"/><circle cx="570" cy="338" r="6" fill="#68d8ed"/><circle cx="590" cy="338" r="6" fill="#efad00"/><circle cx="610" cy="338" r="6" fill="#ec6b42"/><circle cx="630" cy="338" r="6" fill="#68d8ed"/><circle cx="650" cy="338" r="6" fill="#efad00"/><circle cx="670" cy="338" r="6" fill="#ec6b42"/><circle cx="530" cy="358" r="6" fill="#ec6b42"/><circle cx="550" cy="358" r="6" fill="#68d8ed"/><circle cx="570" cy="358" r="6" fill="#efad00"/><circle cx="590" cy="358" r="6" fill="#ec6b42"/><circle cx="610" cy="358" r="6" fill="#68d8ed"/><circle cx="630" cy="358" r="6" fill="#efad00"/><circle cx="650" cy="358" r="6" fill="#ec6b42"/><circle cx="670" cy="358" r="6" fill="#68d8ed"/><circle cx="530" cy="378" r="6" fill="#68d8ed"/><circle cx="550" cy="378" r="6" fill="#efad00"/><circle cx="570" cy="378" r="6" fill="#ec6b42"/><circle cx="590" cy="378" r="6" fill="#68d8ed"/><circle cx="610" cy="378" r="6" fill="#efad00"/><circle cx="630" cy="378" r="6" fill="#ec6b42"/><circle cx="650" cy="378" r="6" fill="#68d8ed"/><circle cx="670" cy="378" r="6" fill="#efad00"/><circle cx="530" cy="398" r="6" fill="#efad00"/><circle cx="550" cy="398" r="6" fill="#ec6b42"/><circle cx="570" cy="398" r="6" fill="#68d8ed"/><circle cx="590" cy="398" r="6" fill="#efad00"/><circle cx="610" cy="398" r="6" fill="#ec6b42"/><circle cx="630" cy="398" r="6" fill="#68d8ed"/><circle cx="650" cy="398" r="6" fill="#efad00"/><circle cx="670" cy="398" r="6" fill="#ec6b42"/><circle cx="530" cy="418" r="6" fill="#ec6b42"/><circle cx="550" cy="418" r="6" fill="#68d8ed"/><circle cx="570" cy="418" r="6" fill="#efad00"/><circle cx="590" cy="418" r="6" fill="#ec6b42"/><circle cx="610" cy="418" r="6" fill="#68d8ed"/><circle cx="630" cy="418" r="6" fill="#efad00"/><circle cx="650" cy="418" r="6" fill="#ec6b42"/><circle cx="670" cy="418" r="6" fill="#68d8ed"/><text x="600" y="462" text-anchor="middle" font-size="21" font-weight="700" fill="#102018"><tspan x="600" dy="0">飞轮启动</tspan></text><text x="600" y="492" text-anchor="middle" font-size="16" font-weight="600" fill="#58665e"><tspan x="600" dy="0">天蓝 → 橙红</tspan></text></g><g><rect x="826" y="222" width="240" height="286" rx="20" fill="#f5f8f3" stroke="#bfd4b7" stroke-width="2"/><circle cx="876" cy="278" r="6" fill="#ef7ab7"/><circle cx="896" cy="278" r="6" fill="#f6b3d4"/><circle cx="916" cy="278" r="6" fill="#ef7ab7"/><circle cx="936" cy="278" r="6" fill="#f6b3d4"/><circle cx="956" cy="278" r="6" fill="#ef7ab7"/><circle cx="976" cy="278" r="6" fill="#f6b3d4"/><circle cx="996" cy="278" r="6" fill="#ef7ab7"/><circle cx="1016" cy="278" r="6" fill="#f6b3d4"/><circle cx="876" cy="298" r="6" fill="#f6b3d4"/><circle cx="896" cy="298" r="6" fill="#ef7ab7"/><circle cx="916" cy="298" r="6" fill="#f6b3d4"/><circle cx="936" cy="298" r="6" fill="#ef7ab7"/><circle cx="956" cy="298" r="6" fill="#f6b3d4"/><circle cx="976" cy="298" r="6" fill="#ef7ab7"/><circle cx="996" cy="298" r="6" fill="#f6b3d4"/><circle cx="1016" cy="298" r="6" fill="#ef7ab7"/><circle cx="876" cy="318" r="6" fill="#ef7ab7"/><circle cx="896" cy="318" r="6" fill="#f6b3d4"/><circle cx="916" cy="318" r="6" fill="#ef7ab7"/><circle cx="936" cy="318" r="6" fill="#f6b3d4"/><circle cx="956" cy="318" r="6" fill="#ef7ab7"/><circle cx="976" cy="318" r="6" fill="#f6b3d4"/><circle cx="996" cy="318" r="6" fill="#ef7ab7"/><circle cx="1016" cy="318" r="6" fill="#f6b3d4"/><circle cx="876" cy="338" r="6" fill="#f6b3d4"/><circle cx="896" cy="338" r="6" fill="#ef7ab7"/><circle cx="916" cy="338" r="6" fill="#f6b3d4"/><circle cx="936" cy="338" r="6" fill="#ef7ab7"/><circle cx="956" cy="338" r="6" fill="#f6b3d4"/><circle cx="976" cy="338" r="6" fill="#ef7ab7"/><circle cx="996" cy="338" r="6" fill="#f6b3d4"/><circle cx="1016" cy="338" r="6" fill="#ef7ab7"/><circle cx="876" cy="358" r="6" fill="#ef7ab7"/><circle cx="896" cy="358" r="6" fill="#f6b3d4"/><circle cx="916" cy="358" r="6" fill="#ef7ab7"/><circle cx="936" cy="358" r="6" fill="#f6b3d4"/><circle cx="956" cy="358" r="6" fill="#ef7ab7"/><circle cx="976" cy="358" r="6" fill="#f6b3d4"/><circle cx="996" cy="358" r="6" fill="#ef7ab7"/><circle cx="1016" cy="358" r="6" fill="#f6b3d4"/><circle cx="876" cy="378" r="6" fill="#f6b3d4"/><circle cx="896" cy="378" r="6" fill="#ef7ab7"/><circle cx="916" cy="378" r="6" fill="#f6b3d4"/><circle cx="936" cy="378" r="6" fill="#ef7ab7"/><circle cx="956" cy="378" r="6" fill="#f6b3d4"/><circle cx="976" cy="378" r="6" fill="#ef7ab7"/><circle cx="996" cy="378" r="6" fill="#f6b3d4"/><circle cx="1016" cy="378" r="6" fill="#ef7ab7"/><circle cx="876" cy="398" r="6" fill="#ef7ab7"/><circle cx="896" cy="398" r="6" fill="#f6b3d4"/><circle cx="916" cy="398" r="6" fill="#ef7ab7"/><circle cx="936" cy="398" r="6" fill="#f6b3d4"/><circle cx="956" cy="398" r="6" fill="#ef7ab7"/><circle cx="976" cy="398" r="6" fill="#f6b3d4"/><circle cx="996" cy="398" r="6" fill="#ef7ab7"/><circle cx="1016" cy="398" r="6" fill="#f6b3d4"/><circle cx="876" cy="418" r="6" fill="#f6b3d4"/><circle cx="896" cy="418" r="6" fill="#ef7ab7"/><circle cx="916" cy="418" r="6" fill="#f6b3d4"/><circle cx="936" cy="418" r="6" fill="#ef7ab7"/><circle cx="956" cy="418" r="6" fill="#f6b3d4"/><circle cx="976" cy="418" r="6" fill="#ef7ab7"/><circle cx="996" cy="418" r="6" fill="#f6b3d4"/><circle cx="1016" cy="418" r="6" fill="#ef7ab7"/><text x="946" y="462" text-anchor="middle" font-size="21" font-weight="700" fill="#102018"><tspan x="946" dy="0">比赛末段</tspan></text><text x="946" y="492" text-anchor="middle" font-size="16" font-weight="600" fill="#58665e"><tspan x="946" dy="0">粉色提醒</tspan></text></g>
  <text x="600" y="594" text-anchor="middle" font-size="19" font-weight="600" fill="#2c7624"><tspan x="600" dy="0">额外功能：俄罗斯方块 · 贪吃蛇</tspan></text>

</svg>